<svg xmlns="http://www.w3.org/2000/svg" xml:space="preserve" width="1000" height="1000" style="background-color:#ff3400;enable-background:new 0 0 1000 1000">
  <path d="M0 0h1000v1000H0z" style="fill:#00863e;stroke:#2d63d9;stroke-width:0"/>
  <path fill="none" d="M509 176c3-1 5-3 8-3 15-1 30 21 37 32l11 21a298 298 0 0 1 32 115c0 18 1 35-2 53-6 29-25 66-41 89-10 13-28 35-45 38l-11 1c-19 0-34-19-43-33a256 256 0 0 1-38-118l-1-12v-71l1-12v-10a352 352 0 0 1 34-120c3-5 7-10 12-13 6-3 14 1 19 4 11 8 24 26 27 39Zm2 32c-7 3-9 9-12 15a362 362 0 0 0-28 150c0 22 0 45 6 66 14-8 25-25 34-38 16-25 31-62 31-92 0-16-5-41-10-56-7-22-15-28-21-45ZM135 557c8-1 8 1 15 1a414 414 0 0 1 164 44c19 9 41 23 53 41 7 10 12 19 14 31l2 12c2 9 8 15 8 29l-1 12c-5 8-22 13-31 16-34 11-68 11-103 11l-10-1-31-3c-35-4-79-14-108-34-8-5-14-11-21-18-17-18-32-45-32-70v-6c0-25 24-45 44-56 7-4 18-7 26-8l11-1Zm429 71c-1-5-2-16 0-21 3-5 7-7 12-9l26-8c45-11 80-12 125-11l10 1h13l22 2c42 4 82 16 116 42 23 17 49 54 49 84v14c0 12-6 21-16 28-13 10-31 12-47 14l-58 5-17 1h-19l-14-1c-40 0-84-9-121-25-27-11-37-15-58-37-13-14-30-40-30-59v-5c0-7 0-12 7-15Zm-255 38-15-6-18-6c-35-10-72-17-108-17-12 0-24 5-34 11-4 3-8 5-11 10l33 8c21 4 41 7 62 8l12 1h23c11 0 28-2 39-4 6-1 12-2 17-5Zm560 11c-28-11-51-15-81-17l-11-1h-12l-12-1-55 2c-17 2-28 3-45 7-5 1-14 2-19 5 30 10 57 15 88 17l10 1 19 1h10l20-1 61-6c7-1 21-3 27-7Z" style="fill:#fff;fill-opacity:1;stroke-width:0;stroke-dasharray:none"/>
</svg>
