<?xml version="1.0" encoding="UTF-8" standalone="no"?>
<svg
   width="3.33333in"
   height="3.33333in"
   viewBox="0 0 1000 1000"
   version="1.1"
   id="svg1"
   sodipodi:docname="sin-kulupu.svg"
   inkscape:version="1.4 (e7c3feb100, 2024-10-09)"
   xmlns:inkscape="http://www.inkscape.org/namespaces/inkscape"
   xmlns:sodipodi="http://sodipodi.sourceforge.net/DTD/sodipodi-0.dtd"
   xmlns="http://www.w3.org/2000/svg"
   xmlns:svg="http://www.w3.org/2000/svg">
  <defs
     id="defs1" />
  <sodipodi:namedview
     id="namedview1"
     pagecolor="#ffffff"
     bordercolor="#000000"
     borderopacity="0.25"
     inkscape:showpageshadow="2"
     inkscape:pageopacity="0.0"
     inkscape:pagecheckerboard="0"
     inkscape:deskcolor="#d1d1d1"
     inkscape:document-units="in"
     inkscape:zoom="2.4968776"
     inkscape:cx="159.99984"
     inkscape:cy="159.99984"
     inkscape:window-width="1920"
     inkscape:window-height="1008"
     inkscape:window-x="0"
     inkscape:window-y="0"
     inkscape:window-maximized="1"
     inkscape:current-layer="svg1" />
  <path
     id="Selection"
     fill="none"
     stroke="black"
     stroke-width="1"
     d="M 509.00,176.00            C 511.75,174.62 513.84,173.33 517.00,173.15              531.89,172.30 546.93,193.93 553.95,205.00              553.95,205.00 565.25,226.00 565.25,226.00              577.37,250.24 582.34,264.87 588.87,291.00              592.59,305.87 596.82,325.77 597.00,341.00              597.20,358.74 597.74,376.48 594.58,394.00              589.43,422.50 570.35,459.53 553.57,483.00              543.95,496.46 525.70,517.70 509.00,521.47              505.98,522.16 501.20,522.03 498.00,522.00              479.31,521.77 464.13,503.26 454.67,489.00              445.18,474.71 440.22,462.86 434.19,447.00              424.56,421.69 418.77,398.03 416.91,371.00              416.91,371.00 416.00,359.00 416.00,359.00              416.00,359.00 416.00,288.00 416.00,288.00              416.00,288.00 417.04,276.00 417.04,276.00              417.04,276.00 417.04,266.00 417.04,266.00              420.08,235.49 426.69,203.62 437.81,175.00              441.16,166.39 446.85,153.94 451.43,146.00              454.03,141.49 458.26,135.54 463.00,133.17              469.02,130.17 476.96,133.75 482.00,137.22              492.88,144.70 505.95,163.01 509.00,176.00 Z            M 511.00,208.00            C 504.14,211.00 501.85,216.51 498.78,223.00              492.83,235.56 488.38,248.66 484.58,262.00              473.05,302.42 471.00,331.44 471.00,373.00              471.00,394.97 471.33,417.61 477.00,439.00              490.59,431.07 502.13,414.06 510.66,401.00              526.84,376.21 542.34,338.99 542.00,309.00              541.81,292.89 536.79,268.49 531.98,253.00              525.22,231.29 516.94,225.00 511.00,208.00 Z            M 135.00,557.42            C 142.79,556.48 143.19,557.82 150.00,557.99              167.86,558.42 185.45,561.40 203.00,564.58              241.47,571.53 279.06,584.28 314.00,601.75              333.05,611.28 354.62,625.44 366.96,643.00              373.76,652.67 378.50,662.44 381.11,674.00              381.11,674.00 382.63,686.00 382.63,686.00              385.28,695.34 390.83,701.03 391.00,715.00              391.04,718.90 391.34,723.46 389.55,727.00              385.33,735.31 367.64,740.15 359.00,743.00              324.79,754.29 291.48,754.41 256.00,754.00              256.00,754.00 246.00,753.09 246.00,753.09              246.00,753.09 215.00,750.15 215.00,750.15              180.04,745.98 136.46,736.09 107.00,716.25              99.17,710.98 92.58,704.73 86.01,698.00              68.79,680.35 54.04,653.17 54.00,628.00              54.00,628.00 54.00,622.00 54.00,622.00              54.29,597.32 77.89,577.14 98.00,566.31              105.46,562.29 115.55,559.01 124.00,558.17              124.00,558.17 135.00,557.42 135.00,557.42 Z            M 564.23,628.00            C 563.03,622.57 561.91,611.96 564.23,607.02              566.83,602.40 571.47,600.37 576.00,598.43              586.16,594.07 591.47,592.76 602.00,590.13              646.61,578.98 681.57,578.47 727.00,579.00              727.00,579.00 737.00,579.96 737.00,579.96              737.00,579.96 750.00,579.96 750.00,579.96              750.00,579.96 772.00,581.83 772.00,581.83              813.99,586.03 854.15,597.68 888.00,623.89              910.64,641.42 936.95,678.16 937.00,708.00              937.00,708.00 937.00,722.00 937.00,722.00              936.94,734.17 930.79,743.21 921.00,750.21              907.57,759.83 889.99,762.24 874.00,764.15              874.00,764.15 816.00,769.00 816.00,769.00              816.00,769.00 799.00,770.00 799.00,770.00              799.00,770.00 780.00,770.00 780.00,770.00              780.00,770.00 766.00,769.00 766.00,769.00              726.34,768.54 681.54,760.00 645.00,744.42              617.95,732.89 608.12,729.05 587.04,707.00              574.04,693.40 557.23,667.40 557.00,648.00              557.00,648.00 557.00,643.00 557.00,643.00              557.01,635.99 557.03,631.49 564.23,628.00 Z            M 309.00,666.00            C 309.00,666.00 294.00,660.42 294.00,660.42              294.00,660.42 276.00,654.42 276.00,654.42              241.14,644.23 204.42,636.58 168.00,637.00              155.81,637.15 144.16,641.57 134.00,648.05              129.63,650.84 125.52,653.38 123.00,658.00              123.00,658.00 156.00,666.39 156.00,666.39              176.53,670.26 197.19,672.66 218.00,674.09              218.00,674.09 230.00,675.00 230.00,675.00              230.00,675.00 253.00,675.00 253.00,675.00              264.44,674.98 280.64,672.74 292.00,670.61              297.59,669.57 304.07,668.93 309.00,666.00 Z            M 869.00,677.00            C 841.03,665.82 817.80,661.96 788.00,659.91              788.00,659.91 777.00,658.96 777.00,658.96              777.00,658.96 765.00,658.96 765.00,658.96              765.00,658.96 753.00,658.00 753.00,658.00              753.00,658.00 698.00,659.83 698.00,659.83              680.79,661.50 670.07,662.81 653.00,666.58              647.51,667.79 638.66,669.23 634.00,672.00              663.54,681.85 691.00,686.96 722.00,689.09              722.00,689.09 732.00,690.00 732.00,690.00              732.00,690.00 751.00,691.00 751.00,691.00              751.00,691.00 761.00,691.00 761.00,691.00              761.00,691.00 781.00,690.00 781.00,690.00              781.00,690.00 842.00,684.13 842.00,684.13              849.33,683.11 863.14,681.17 869.00,677.00 Z"
     style="fill:#00863e;fill-opacity:1;stroke-width:0;stroke-dasharray:none" />
</svg>
