<?xml version="1.0" encoding="UTF-8" standalone="no"?>
<svg
   width="20in"
   height="5in"
   viewBox="0 0 6000 1500"
   version="1.1"
   id="svg1"
   sodipodi:docname="sin-kulupu-long.svg"
   inkscape:version="1.4 (e7c3feb100, 2024-10-09)"
   xmlns:inkscape="http://www.inkscape.org/namespaces/inkscape"
   xmlns:sodipodi="http://sodipodi.sourceforge.net/DTD/sodipodi-0.dtd"
   xmlns="http://www.w3.org/2000/svg"
   xmlns:svg="http://www.w3.org/2000/svg">
  <defs
     id="defs1" />
  <sodipodi:namedview
     id="namedview1"
     pagecolor="#ffffff"
     bordercolor="#000000"
     borderopacity="0.25"
     inkscape:showpageshadow="2"
     inkscape:pageopacity="0.0"
     inkscape:pagecheckerboard="0"
     inkscape:deskcolor="#d1d1d1"
     inkscape:document-units="in"
     inkscape:zoom="0.63971067"
     inkscape:cx="955.9009"
     inkscape:cy="186.8032"
     inkscape:window-width="1920"
     inkscape:window-height="1008"
     inkscape:window-x="0"
     inkscape:window-y="0"
     inkscape:window-maximized="1"
     inkscape:current-layer="svg1" />
  <path
     id="Selection"
     fill="none"
     stroke="black"
     stroke-width="1"
     d="M 3135.97,585.00            C 3132.20,595.69 3125.95,603.46 3120.25,613.00              3120.25,613.00 3091.35,659.00 3091.35,659.00              3091.35,659.00 3076.23,680.00 3076.23,680.00              3076.23,680.00 3055.21,710.00 3055.21,710.00              3052.20,714.30 3048.09,722.38 3043.83,725.14              3038.00,728.92 3030.31,723.85 3026.00,719.91              3015.34,710.14 3006.29,694.68 3005.18,680.00              3004.55,671.61 3008.37,668.38 3012.57,662.00              3012.57,662.00 3033.77,632.00 3033.77,632.00              3033.77,632.00 3063.14,589.00 3063.14,589.00              3063.14,589.00 3074.64,570.00 3074.64,570.00              3074.64,570.00 3092.32,542.00 3092.32,542.00              3092.32,542.00 3100.42,526.00 3100.42,526.00              3100.42,526.00 3111.92,504.00 3111.92,504.00              3111.92,504.00 3123.38,481.00 3123.38,481.00              3123.38,481.00 3126.59,472.00 3126.59,472.00              3126.59,472.00 3134.74,453.00 3134.74,453.00              3134.74,453.00 3138.50,441.00 3138.50,441.00              3138.50,441.00 3145.90,417.00 3145.90,417.00              3145.90,417.00 3145.90,406.00 3145.90,406.00              3145.90,406.00 3146.91,396.00 3146.91,396.00              3146.91,396.00 3149.17,363.00 3149.17,363.00              3149.17,363.00 3150.83,351.00 3150.83,351.00              3150.83,351.00 3153.17,316.00 3153.17,316.00              3153.17,316.00 3155.06,304.00 3155.06,304.00              3155.06,304.00 3155.06,295.00 3155.06,295.00              3155.06,295.00 3157.06,285.00 3157.06,285.00              3157.06,285.00 3157.06,275.00 3157.06,275.00              3157.06,275.00 3159.72,259.00 3159.72,259.00              3159.72,259.00 3160.28,249.00 3160.28,249.00              3160.28,249.00 3163.06,232.00 3163.06,232.00              3163.06,232.00 3163.06,222.00 3163.06,222.00              3163.06,222.00 3167.91,191.00 3167.91,191.00              3168.48,182.75 3169.61,162.53 3174.72,156.28              3177.75,152.58 3182.04,153.17 3186.00,154.76              3192.45,157.35 3199.79,165.29 3203.64,171.00              3211.88,183.20 3216.32,198.25 3215.99,213.00              3215.99,213.00 3215.00,227.00 3215.00,227.00              3215.00,227.00 3215.00,252.00 3215.00,252.00              3215.00,252.00 3214.00,265.00 3214.00,265.00              3214.00,265.00 3213.00,292.00 3213.00,292.00              3213.00,292.00 3212.09,302.00 3212.09,302.00              3212.09,302.00 3210.83,323.00 3210.83,323.00              3210.83,323.00 3209.00,334.00 3209.00,334.00              3209.00,334.00 3209.00,343.00 3209.00,343.00              3209.00,343.00 3205.06,367.00 3205.06,367.00              3205.06,367.00 3205.06,376.00 3205.06,376.00              3205.06,376.00 3199.71,410.00 3199.71,410.00              3199.71,410.00 3197.36,419.00 3197.36,419.00              3197.36,419.00 3192.34,444.00 3192.34,444.00              3190.54,452.04 3188.04,459.67 3188.00,468.00              3188.00,468.00 3187.00,491.00 3187.00,491.00              3187.00,491.00 3186.00,509.00 3186.00,509.00              3186.00,509.00 3183.00,555.00 3183.00,555.00              3183.00,555.00 3182.00,570.00 3182.00,570.00              3182.00,570.00 3180.96,592.00 3180.96,592.00              3180.96,592.00 3180.96,607.00 3180.96,607.00              3180.96,607.00 3180.00,619.00 3180.00,619.00              3179.99,628.00 3180.59,637.12 3179.00,646.00              3188.50,637.95 3196.22,628.25 3204.61,619.13              3204.61,619.13 3212.92,611.56 3212.92,611.56              3212.92,611.56 3221.08,602.43 3221.08,602.43              3221.08,602.43 3229.39,594.74 3229.39,594.74              3229.39,594.74 3238.41,585.17 3238.41,585.17              3238.41,585.17 3245.92,578.56 3245.92,578.56              3245.92,578.56 3253.25,570.45 3253.25,570.45              3253.25,570.45 3272.39,552.74 3272.39,552.74              3272.39,552.74 3298.17,528.79 3298.17,528.79              3298.17,528.79 3305.00,524.91 3305.00,524.91              3311.70,520.93 3317.84,517.49 3326.00,517.47              3328.49,517.46 3330.63,518.19 3333.00,518.86              3342.61,521.57 3345.03,523.62 3351.91,531.00              3364.99,545.03 3374.44,564.77 3375.82,584.00              3376.03,587.03 3375.44,590.03 3374.92,593.00              3372.22,608.32 3365.14,618.09 3355.60,630.00              3349.83,637.21 3340.45,644.71 3333.25,650.67              3333.25,650.67 3324.83,658.30 3324.83,658.30              3324.83,658.30 3311.00,667.33 3311.00,667.33              3311.00,667.33 3298.00,676.67 3298.00,676.67              3298.00,676.67 3280.09,687.51 3280.09,687.51              3280.09,687.51 3273.91,691.83 3273.91,691.83              3273.91,691.83 3263.00,697.51 3263.00,697.51              3253.02,703.18 3245.53,708.37 3234.00,711.00              3234.00,711.00 3248.69,733.00 3248.69,733.00              3260.97,755.36 3269.83,779.45 3279.45,803.00              3279.45,803.00 3285.94,817.00 3285.94,817.00              3285.94,817.00 3291.54,834.00 3291.54,834.00              3291.54,834.00 3294.94,842.00 3294.94,842.00              3294.94,842.00 3299.70,857.00 3299.70,857.00              3299.70,857.00 3304.31,868.00 3304.31,868.00              3305.50,871.29 3306.98,878.15 3309.43,880.28              3312.43,882.89 3320.10,883.48 3324.00,883.41              3336.58,883.17 3337.86,882.29 3350.00,878.33              3366.53,872.94 3369.18,870.93 3383.09,861.00              3388.56,857.09 3394.14,853.34 3398.92,848.56              3398.92,848.56 3406.25,840.28 3406.25,840.28              3411.82,834.34 3420.03,824.69 3424.48,818.00              3424.48,818.00 3429.03,810.00 3429.03,810.00              3429.03,810.00 3441.39,790.00 3441.39,790.00              3441.39,790.00 3445.45,780.00 3445.45,780.00              3455.49,758.06 3456.32,754.42 3463.50,732.00              3463.50,732.00 3470.41,710.00 3470.41,710.00              3470.41,710.00 3475.45,685.00 3475.45,685.00              3475.45,685.00 3477.72,676.00 3477.72,676.00              3477.72,676.00 3482.42,645.00 3482.42,645.00              3484.45,631.96 3486.98,619.23 3487.00,606.00              3487.00,606.00 3488.00,591.00 3488.00,591.00              3488.00,591.00 3488.00,573.00 3488.00,573.00              3488.00,573.00 3489.00,558.00 3489.00,558.00              3489.00,558.00 3490.09,534.00 3490.09,534.00              3490.09,534.00 3490.99,525.00 3490.99,525.00              3491.12,520.42 3491.04,513.83 3495.22,510.86              3501.66,506.30 3510.63,513.74 3515.00,518.01              3527.33,530.08 3534.97,545.60 3535.00,563.00              3535.00,563.00 3531.91,626.00 3531.91,626.00              3531.91,626.00 3530.00,651.00 3530.00,651.00              3530.00,651.00 3530.00,765.00 3530.00,765.00              3530.00,765.00 3533.29,812.00 3533.29,812.00              3533.29,812.00 3535.91,830.00 3535.91,830.00              3536.78,842.60 3538.63,858.77 3541.63,871.00              3542.33,873.87 3543.68,882.66 3545.58,884.31              3547.26,885.76 3559.16,886.37 3561.91,886.32              3561.91,886.32 3574.00,885.44 3574.00,885.44              3612.70,884.28 3639.18,852.74 3657.58,822.00              3664.97,809.66 3671.91,797.12 3677.88,784.00              3677.88,784.00 3685.58,764.00 3685.58,764.00              3685.58,764.00 3689.13,756.00 3689.13,756.00              3689.13,756.00 3693.17,743.00 3693.17,743.00              3703.56,711.63 3711.55,679.72 3716.27,647.00              3716.27,647.00 3722.09,596.00 3722.09,596.00              3722.09,596.00 3723.00,586.00 3723.00,586.00              3723.00,586.00 3723.00,573.00 3723.00,573.00              3723.00,573.00 3724.00,557.00 3724.00,557.00              3724.00,557.00 3724.00,533.00 3724.00,533.00              3724.01,530.18 3724.00,527.78 3724.68,525.00              3728.14,510.84 3741.66,519.77 3748.00,526.01              3759.75,537.60 3766.97,553.44 3767.00,570.00              3767.00,570.00 3767.00,706.00 3767.00,706.00              3767.00,706.00 3768.00,720.00 3768.00,720.00              3768.00,720.00 3768.00,725.00 3768.00,725.00              3768.00,725.00 3769.91,750.00 3769.91,750.00              3769.91,750.00 3771.17,770.00 3771.17,770.00              3771.17,770.00 3773.71,787.00 3773.71,787.00              3773.71,787.00 3774.29,798.00 3774.29,798.00              3774.29,798.00 3777.94,821.00 3777.94,821.00              3777.94,821.00 3777.94,830.00 3777.94,830.00              3777.94,830.00 3781.28,851.00 3781.28,851.00              3781.28,851.00 3784.20,864.00 3784.20,864.00              3784.20,864.00 3786.66,879.00 3786.66,879.00              3786.66,879.00 3790.00,895.00 3790.00,895.00              3812.15,894.00 3819.60,882.40 3833.42,867.17              3843.46,856.11 3852.90,844.25 3861.48,832.00              3861.48,832.00 3868.18,821.00 3868.18,821.00              3868.18,821.00 3887.32,791.00 3887.32,791.00              3887.32,791.00 3899.48,767.00 3899.48,767.00              3899.48,767.00 3910.00,744.00 3910.00,744.00              3910.00,744.00 3915.75,732.00 3915.75,732.00              3922.76,714.60 3932.06,686.21 3936.99,668.00              3936.99,668.00 3938.92,659.00 3938.92,659.00              3938.92,659.00 3944.41,641.00 3944.41,641.00              3944.41,641.00 3945.92,633.00 3945.92,633.00              3945.92,633.00 3958.45,584.00 3958.45,584.00              3960.44,574.35 3963.98,564.92 3964.00,555.00              3964.00,555.00 3964.00,525.00 3964.00,525.00              3964.00,525.00 3965.00,509.00 3965.00,509.00              3965.00,509.00 3965.00,485.00 3965.00,485.00              3965.00,485.00 3966.00,470.00 3966.00,470.00              3966.00,470.00 3966.00,451.00 3966.00,451.00              3966.00,451.00 3967.00,435.00 3967.00,435.00              3967.00,435.00 3967.00,418.00 3967.00,418.00              3967.00,418.00 3968.00,402.00 3968.00,402.00              3968.00,402.00 3968.00,379.00 3968.00,379.00              3968.00,379.00 3968.96,367.00 3968.96,367.00              3968.96,367.00 3968.96,352.00 3968.96,352.00              3968.96,352.00 3970.00,337.00 3970.00,337.00              3970.00,337.00 3971.00,310.00 3971.00,310.00              3971.00,310.00 3972.91,287.00 3972.91,287.00              3972.91,287.00 3977.09,227.00 3977.09,227.00              3977.09,227.00 3978.96,213.00 3978.96,213.00              3979.36,204.28 3980.56,195.61 3982.08,187.00              3982.84,182.76 3985.20,175.43 3988.41,172.51              3994.80,166.70 4004.43,174.51 4009.00,179.01              4021.71,191.55 4029.97,212.15 4030.00,230.00              4030.00,230.00 4030.00,235.00 4030.00,235.00              4030.00,235.00 4030.96,245.00 4030.96,245.00              4030.96,245.00 4030.96,255.00 4030.96,255.00              4030.96,255.00 4032.00,270.00 4032.00,270.00              4032.00,270.00 4032.00,295.00 4032.00,295.00              4032.00,295.00 4033.00,310.00 4033.00,310.00              4033.00,310.00 4032.00,325.00 4032.00,325.00              4032.00,325.00 4032.00,381.00 4032.00,381.00              4032.00,381.00 4031.00,397.00 4031.00,397.00              4031.00,397.00 4031.00,408.00 4031.00,408.00              4031.00,408.00 4028.09,446.00 4028.09,446.00              4028.09,446.00 4026.83,467.00 4026.83,467.00              4026.83,467.00 4024.94,478.00 4024.94,478.00              4024.94,478.00 4024.94,488.00 4024.94,488.00              4024.94,488.00 4020.06,517.00 4020.06,517.00              4020.06,517.00 4020.06,526.00 4020.06,526.00              4020.06,526.00 4017.74,540.00 4017.74,540.00              4017.74,540.00 4015.31,550.00 4015.31,550.00              4015.31,550.00 4010.25,583.00 4010.25,583.00              4008.70,592.35 4007.02,593.03 4007.00,603.00              4007.00,603.00 4006.00,623.00 4006.00,623.00              4006.00,623.00 4006.00,800.00 4006.00,800.00              4006.00,800.00 4007.00,815.00 4007.00,815.00              4007.00,815.00 4007.00,844.00 4007.00,844.00              4007.00,844.00 4008.00,859.00 4008.00,859.00              4008.00,859.00 4009.00,886.00 4009.00,886.00              4016.21,884.54 4028.78,880.62 4035.00,876.91              4040.26,873.78 4050.11,865.39 4054.20,860.87              4060.22,854.22 4075.68,832.19 4080.58,824.00              4091.93,805.05 4101.49,785.49 4109.75,765.00              4109.75,765.00 4114.85,750.00 4114.85,750.00              4114.85,750.00 4119.50,738.00 4119.50,738.00              4119.50,738.00 4123.21,723.00 4123.21,723.00              4123.21,723.00 4128.41,706.00 4128.41,706.00              4128.41,706.00 4129.68,699.00 4129.68,699.00              4129.68,699.00 4134.64,679.00 4134.64,679.00              4134.64,679.00 4136.45,668.00 4136.45,668.00              4136.45,668.00 4141.50,647.00 4141.50,647.00              4141.50,647.00 4143.46,635.00 4143.46,635.00              4143.46,635.00 4146.27,623.00 4146.27,623.00              4146.27,623.00 4149.69,607.00 4149.69,607.00              4149.69,607.00 4152.46,589.00 4152.46,589.00              4152.46,589.00 4154.64,581.00 4154.64,581.00              4154.64,581.00 4161.00,541.00 4161.00,541.00              4161.80,532.15 4164.19,519.00 4176.00,520.61              4184.57,521.78 4193.84,532.10 4198.30,539.00              4211.62,559.57 4209.74,575.04 4210.00,598.00              4210.00,598.00 4211.00,613.00 4211.00,613.00              4211.00,613.00 4211.00,805.00 4211.00,805.00              4211.00,805.00 4211.91,815.00 4211.91,815.00              4212.93,829.75 4213.33,841.39 4216.87,856.00              4218.02,860.74 4219.14,870.08 4222.43,873.47              4230.24,881.53 4247.65,879.54 4257.72,878.31              4270.15,876.78 4277.15,873.95 4288.00,867.80              4292.00,865.54 4296.28,863.66 4299.99,860.91              4316.49,848.63 4331.60,823.29 4340.92,805.00              4340.92,805.00 4356.13,771.00 4356.13,771.00              4356.13,771.00 4361.23,755.00 4361.23,755.00              4361.23,755.00 4365.48,745.00 4365.48,745.00              4365.48,745.00 4371.42,723.00 4371.42,723.00              4371.42,723.00 4376.26,707.00 4376.26,707.00              4376.26,707.00 4380.66,687.00 4380.66,687.00              4380.66,687.00 4385.72,666.00 4385.72,666.00              4385.72,666.00 4387.46,655.00 4387.46,655.00              4387.46,655.00 4389.83,646.00 4389.83,646.00              4389.83,646.00 4394.46,616.00 4394.46,616.00              4394.46,616.00 4396.68,607.00 4396.68,607.00              4396.68,607.00 4397.43,596.00 4397.43,596.00              4397.43,596.00 4401.00,573.00 4401.00,573.00              4401.00,573.00 4401.00,565.00 4401.00,565.00              4401.00,565.00 4403.00,549.00 4403.00,549.00              4403.07,542.60 4401.69,527.97 4406.43,523.51              4410.80,519.40 4417.93,522.55 4422.00,525.56              4431.74,532.76 4439.80,545.57 4443.64,557.00              4448.57,571.62 4447.00,587.75 4447.00,603.00              4447.00,603.00 4447.00,653.00 4447.00,653.00              4447.00,653.00 4448.00,670.00 4448.00,670.00              4448.00,670.00 4449.00,706.00 4449.00,706.00              4449.00,706.00 4451.00,734.00 4451.00,734.00              4451.00,734.00 4452.00,760.00 4452.00,760.00              4452.00,760.00 4453.00,775.00 4453.00,775.00              4453.00,775.00 4454.00,796.00 4454.00,796.00              4454.00,796.00 4455.00,821.00 4455.00,821.00              4455.00,821.00 4456.04,831.00 4456.04,831.00              4456.04,831.00 4456.04,839.00 4456.04,839.00              4456.04,839.00 4460.28,866.00 4460.28,866.00              4461.57,873.64 4462.69,879.71 4471.72,879.26              4478.66,878.90 4496.33,871.35 4501.96,867.32              4501.96,867.32 4508.17,861.80 4508.17,861.80              4508.17,861.80 4520.71,853.32 4520.71,853.32              4520.71,853.32 4551.39,823.91 4551.39,823.91              4568.25,804.62 4583.23,783.39 4593.88,760.00              4603.02,739.94 4613.03,709.47 4619.13,688.00              4619.13,688.00 4621.21,678.00 4621.21,678.00              4621.21,678.00 4628.41,655.00 4628.41,655.00              4628.41,655.00 4629.68,648.00 4629.68,648.00              4629.68,648.00 4632.99,637.00 4632.99,637.00              4632.99,637.00 4635.15,627.00 4635.15,627.00              4635.15,627.00 4638.99,613.00 4638.99,613.00              4638.99,613.00 4642.72,595.00 4642.72,595.00              4642.72,595.00 4649.96,546.00 4649.96,546.00              4650.25,539.69 4651.00,521.56 4656.22,517.86              4662.65,513.31 4671.65,520.73 4676.00,525.01              4687.91,536.76 4695.97,554.17 4696.00,571.00              4696.00,571.00 4696.00,605.00 4696.00,605.00              4696.00,611.23 4695.33,619.11 4697.00,625.00              4700.36,616.97 4705.71,610.17 4710.48,603.00              4710.48,603.00 4715.64,594.00 4715.64,594.00              4715.64,594.00 4728.48,575.00 4728.48,575.00              4728.48,575.00 4733.64,566.00 4733.64,566.00              4740.79,554.87 4748.58,542.58 4758.25,533.45              4761.60,530.29 4772.07,522.22 4776.00,520.26              4784.90,515.81 4800.94,512.18 4811.00,512.35              4828.70,512.65 4838.30,516.16 4854.00,524.09              4865.78,530.04 4873.91,537.54 4882.96,547.00              4893.80,558.33 4902.29,574.69 4908.69,589.00              4911.83,596.03 4916.80,614.94 4918.65,623.00              4923.90,645.86 4924.51,655.06 4926.09,678.00              4926.09,678.00 4927.00,689.00 4927.00,689.00              4927.00,689.00 4928.00,710.00 4928.00,710.00              4928.00,710.00 4928.00,727.00 4928.00,727.00              4928.00,727.00 4929.00,743.00 4929.00,743.00              4929.00,743.00 4929.00,780.00 4929.00,780.00              4929.00,780.00 4930.00,797.00 4930.00,797.00              4930.00,797.00 4930.00,875.00 4930.00,875.00              4930.00,875.00 4931.00,889.00 4931.00,889.00              4931.00,889.00 4931.00,897.00 4931.00,897.00              4931.00,897.00 4952.58,878.55 4952.58,878.55              4952.58,878.55 4957.42,873.26 4957.42,873.26              4957.42,873.26 4965.75,865.71 4965.75,865.71              4965.75,865.71 4988.61,840.09 4988.61,840.09              4988.61,840.09 4996.00,831.99 4996.00,831.99              4996.00,831.99 5008.04,816.00 5008.04,816.00              5008.04,816.00 5016.48,805.00 5016.48,805.00              5016.48,805.00 5021.64,796.00 5021.64,796.00              5021.64,796.00 5035.88,773.00 5035.88,773.00              5047.87,750.67 5059.27,714.91 5064.64,690.00              5064.64,690.00 5066.45,679.00 5066.45,679.00              5066.45,679.00 5068.72,670.00 5068.72,670.00              5068.72,670.00 5076.00,623.00 5076.00,623.00              5076.00,623.00 5076.00,615.00 5076.00,615.00              5076.00,615.00 5077.83,603.00 5077.83,603.00              5077.83,603.00 5080.09,569.00 5080.09,569.00              5080.09,569.00 5081.00,559.00 5081.00,559.00              5081.00,559.00 5082.46,526.00 5082.46,526.00              5083.09,522.48 5084.18,517.02 5087.22,514.86              5093.23,510.60 5101.76,517.00 5106.00,521.04              5118.34,532.82 5125.97,548.85 5126.00,566.00              5126.00,566.00 5126.00,790.00 5126.00,790.00              5126.00,790.00 5127.00,803.00 5127.00,803.00              5127.29,828.17 5128.70,846.36 5134.89,871.00              5134.89,871.00 5146.00,902.00 5146.00,902.00              5146.00,902.00 5155.17,900.72 5155.17,900.72              5164.67,897.81 5176.77,886.46 5183.42,879.17              5198.42,862.73 5208.08,846.51 5219.84,828.00              5219.84,828.00 5229.32,813.00 5229.32,813.00              5229.32,813.00 5254.30,764.00 5254.30,764.00              5254.30,764.00 5258.85,751.00 5258.85,751.00              5258.85,751.00 5262.62,742.00 5262.62,742.00              5262.62,742.00 5265.85,732.00 5265.85,732.00              5265.85,732.00 5270.81,720.00 5270.81,720.00              5270.81,720.00 5274.42,705.00 5274.42,705.00              5274.42,705.00 5279.26,689.00 5279.26,689.00              5285.06,665.96 5289.73,633.71 5290.00,610.00              5290.00,610.00 5291.00,595.00 5291.00,595.00              5291.00,595.00 5291.00,545.00 5291.00,545.00              5291.00,545.00 5292.87,521.00 5292.87,521.00              5293.30,517.91 5293.70,513.77 5295.72,511.28              5298.73,507.57 5303.06,508.18 5307.00,509.76              5314.06,512.60 5321.95,521.60 5325.94,528.00              5335.76,543.80 5336.86,553.10 5338.09,571.00              5338.09,571.00 5339.00,583.00 5339.00,583.00              5339.00,583.00 5340.00,612.00 5340.00,612.00              5340.00,612.00 5341.00,632.00 5341.00,632.00              5341.00,632.00 5342.00,647.00 5342.00,647.00              5342.00,647.00 5343.00,673.00 5343.00,673.00              5343.00,673.00 5344.00,688.00 5344.00,688.00              5344.00,688.00 5346.00,716.00 5346.00,716.00              5346.00,716.00 5346.00,725.00 5346.00,725.00              5346.00,725.00 5348.91,757.00 5348.91,757.00              5348.91,757.00 5352.91,811.00 5352.91,811.00              5352.91,811.00 5354.17,831.00 5354.17,831.00              5354.17,831.00 5361.45,879.00 5361.45,879.00              5361.45,879.00 5366.00,901.00 5366.00,901.00              5382.58,895.47 5392.71,886.66 5406.29,876.33              5406.29,876.33 5439.08,851.66 5439.08,851.66              5439.08,851.66 5458.96,835.33 5458.96,835.33              5461.51,833.54 5465.08,830.26 5468.01,829.66              5473.70,828.50 5480.19,833.40 5484.00,837.04              5494.14,846.72 5502.74,861.76 5503.82,876.00              5504.76,888.55 5495.60,891.13 5487.29,897.67              5487.29,897.67 5477.25,906.66 5477.25,906.66              5477.25,906.66 5460.43,919.33 5460.43,919.33              5460.43,919.33 5440.29,934.66 5440.29,934.66              5440.29,934.66 5420.83,949.25 5420.83,949.25              5420.83,949.25 5412.00,954.34 5412.00,954.34              5406.57,957.74 5407.47,956.88 5402.00,959.09              5402.00,959.09 5395.04,962.12 5395.04,962.12              5386.92,964.66 5377.30,963.53 5370.00,959.24              5356.08,951.07 5344.48,935.87 5338.45,921.00              5338.45,921.00 5333.00,904.00 5333.00,904.00              5320.79,867.00 5318.83,848.74 5313.27,811.00              5313.27,811.00 5311.17,796.00 5311.17,796.00              5310.53,789.34 5310.84,781.47 5309.00,775.00              5309.00,775.00 5305.52,784.00 5305.52,784.00              5305.52,784.00 5302.41,794.00 5302.41,794.00              5302.41,794.00 5298.87,802.00 5298.87,802.00              5298.87,802.00 5291.55,821.00 5291.55,821.00              5291.55,821.00 5278.59,846.00 5278.59,846.00              5278.59,846.00 5268.00,867.00 5268.00,867.00              5268.00,867.00 5257.25,884.00 5257.25,884.00              5247.96,899.56 5235.57,919.14 5223.25,932.28              5213.96,942.20 5200.31,955.97 5187.04,960.12              5187.04,960.12 5178.96,961.54 5178.96,961.54              5172.29,962.83 5164.30,962.71 5158.00,959.81              5146.92,954.73 5133.14,937.21 5126.33,927.00              5110.83,903.75 5097.90,868.27 5091.65,841.00              5091.65,841.00 5085.00,803.00 5085.00,803.00              5082.63,814.57 5073.34,828.82 5067.25,839.00              5067.25,839.00 5053.14,862.00 5053.14,862.00              5053.14,862.00 5043.92,874.00 5043.92,874.00              5038.95,880.80 5036.06,885.17 5030.08,891.42              5030.08,891.42 5019.58,903.83 5019.58,903.83              5005.27,919.60 4989.10,936.12 4972.41,949.33              4966.16,954.27 4950.63,965.60 4943.00,966.51              4929.24,968.15 4920.91,960.57 4912.09,951.00              4907.31,945.81 4904.86,941.20 4901.75,935.00              4892.24,916.03 4890.35,904.89 4888.91,884.00              4888.91,884.00 4888.00,872.00 4888.00,872.00              4888.00,872.00 4888.00,854.00 4888.00,854.00              4888.00,854.00 4887.00,838.00 4887.00,838.00              4887.00,838.00 4887.00,760.00 4887.00,760.00              4887.00,760.00 4886.00,745.00 4886.00,745.00              4886.00,745.00 4886.00,709.00 4886.00,709.00              4886.00,709.00 4885.00,692.00 4885.00,692.00              4885.00,692.00 4885.00,675.00 4885.00,675.00              4885.00,675.00 4884.00,653.00 4884.00,653.00              4884.00,653.00 4883.09,643.00 4883.09,643.00              4881.99,627.07 4881.98,621.01 4878.42,605.00              4877.46,600.66 4874.72,588.48 4872.28,585.32              4866.65,578.05 4848.19,572.42 4839.00,572.59              4815.31,573.03 4802.82,580.54 4787.45,598.17              4782.71,603.61 4779.23,609.98 4775.36,616.00              4775.36,616.00 4760.83,638.00 4760.83,638.00              4760.83,638.00 4749.15,657.00 4749.15,657.00              4749.15,657.00 4742.83,666.00 4742.83,666.00              4742.83,666.00 4712.77,715.00 4712.77,715.00              4708.33,722.08 4695.32,742.09 4693.49,749.00              4691.79,755.44 4692.08,769.92 4692.00,777.00              4692.00,777.00 4691.00,790.00 4691.00,790.00              4691.00,790.00 4690.00,817.00 4690.00,817.00              4690.00,817.00 4689.00,832.00 4689.00,832.00              4689.00,832.00 4688.00,869.00 4688.00,869.00              4688.00,869.00 4687.00,886.00 4687.00,886.00              4687.00,886.00 4686.00,922.00 4686.00,922.00              4686.00,922.00 4685.00,939.00 4685.00,939.00              4685.00,939.00 4684.00,957.00 4684.00,957.00              4684.00,957.00 4681.00,1011.00 4681.00,1011.00              4681.00,1011.00 4680.09,1021.00 4680.09,1021.00              4680.09,1021.00 4677.83,1054.00 4677.83,1054.00              4677.83,1054.00 4676.17,1066.00 4676.17,1066.00              4676.17,1066.00 4673.83,1101.00 4673.83,1101.00              4673.83,1101.00 4672.17,1113.00 4672.17,1113.00              4672.17,1113.00 4670.83,1134.00 4670.83,1134.00              4670.83,1134.00 4669.17,1146.00 4669.17,1146.00              4669.17,1146.00 4667.83,1167.00 4667.83,1167.00              4667.83,1167.00 4666.17,1179.00 4666.17,1179.00              4666.17,1179.00 4662.83,1227.00 4662.83,1227.00              4662.83,1227.00 4659.91,1266.00 4659.91,1266.00              4659.91,1266.00 4658.00,1289.00 4658.00,1289.00              4658.00,1289.00 4656.17,1319.00 4656.17,1319.00              4656.17,1319.00 4655.58,1329.00 4655.58,1329.00              4654.98,1333.38 4654.65,1340.40 4650.78,1343.14              4644.77,1347.40 4636.24,1341.00 4632.00,1336.96              4622.25,1327.65 4611.19,1308.99 4612.18,1295.00              4612.18,1295.00 4615.00,1252.00 4615.00,1252.00              4615.00,1252.00 4615.91,1242.00 4615.91,1242.00              4615.91,1242.00 4617.91,1215.00 4617.91,1215.00              4617.91,1215.00 4621.91,1162.00 4621.91,1162.00              4621.91,1162.00 4623.17,1142.00 4623.17,1142.00              4623.17,1142.00 4624.83,1130.00 4624.83,1130.00              4624.83,1130.00 4626.17,1108.00 4626.17,1108.00              4626.17,1108.00 4627.91,1096.00 4627.91,1096.00              4627.91,1096.00 4629.17,1075.00 4629.17,1075.00              4629.17,1075.00 4630.91,1063.00 4630.91,1063.00              4630.91,1063.00 4633.17,1029.00 4633.17,1029.00              4633.17,1029.00 4634.83,1017.00 4634.83,1017.00              4634.83,1017.00 4636.17,995.00 4636.17,995.00              4636.17,995.00 4638.00,973.00 4638.00,973.00              4638.00,973.00 4641.00,921.00 4641.00,921.00              4641.00,921.00 4642.00,906.00 4642.00,906.00              4642.00,906.00 4643.00,887.00 4643.00,887.00              4643.00,887.00 4643.00,873.00 4643.00,873.00              4643.00,873.00 4644.00,858.00 4644.00,858.00              4644.00,858.00 4645.00,822.00 4645.00,822.00              4645.00,822.00 4645.97,810.00 4645.97,810.00              4645.97,810.00 4645.97,795.00 4645.97,795.00              4646.01,789.59 4647.44,784.24 4645.97,779.00              4644.41,786.77 4639.30,797.46 4636.25,805.00              4619.14,847.32 4591.01,881.07 4556.41,910.36              4556.41,910.36 4538.83,924.25 4538.83,924.25              4528.29,931.22 4508.77,939.30 4496.00,939.65              4477.57,940.15 4466.49,931.54 4454.00,919.00              4435.04,899.95 4423.62,867.09 4418.74,841.00              4418.74,841.00 4415.09,823.00 4415.09,823.00              4415.09,823.00 4412.17,791.00 4412.17,791.00              4411.61,785.13 4412.72,782.06 4411.00,776.00              4409.84,787.23 4404.11,797.42 4400.72,808.00              4392.75,832.93 4381.65,856.52 4368.25,879.00              4359.84,893.13 4349.94,907.02 4336.83,917.30              4332.45,920.74 4328.70,922.42 4324.00,925.05              4316.63,929.18 4308.13,933.59 4300.00,935.96              4295.47,937.28 4292.17,937.33 4287.72,937.99              4269.44,940.70 4255.26,940.66 4238.00,932.82              4231.70,929.96 4219.11,919.87 4214.00,914.96              4188.79,890.75 4178.79,855.47 4173.41,822.00              4173.41,822.00 4170.04,801.00 4170.04,801.00              4170.04,801.00 4170.04,793.00 4170.04,793.00              4170.04,793.00 4168.09,773.00 4168.09,773.00              4167.72,767.56 4168.61,765.66 4167.00,760.00              4166.30,764.95 4165.74,765.59 4164.58,770.00              4164.58,770.00 4160.50,786.00 4160.50,786.00              4160.50,786.00 4154.84,801.00 4154.84,801.00              4146.93,824.05 4137.30,846.61 4125.52,868.00              4125.52,868.00 4119.25,878.00 4119.25,878.00              4119.25,878.00 4115.35,885.00 4115.35,885.00              4115.35,885.00 4099.66,906.00 4099.66,906.00              4099.66,906.00 4092.39,915.87 4092.39,915.87              4092.39,915.87 4085.75,921.84 4085.75,921.84              4072.96,933.56 4068.73,936.88 4052.00,942.33              4044.63,944.73 4041.83,945.78 4034.00,945.42              4031.40,945.61 4026.25,945.71 4024.00,945.42              4011.39,942.35 3997.84,929.95 3990.24,920.00              3983.93,911.75 3975.98,896.89 3972.75,887.00              3968.66,874.47 3965.02,840.66 3965.00,827.00              3965.00,827.00 3964.00,812.00 3964.00,812.00              3964.00,812.00 3964.00,795.00 3964.00,795.00              3964.00,785.19 3964.87,774.37 3962.00,765.00              3962.00,765.00 3955.00,785.00 3955.00,785.00              3955.00,785.00 3949.68,796.00 3949.68,796.00              3940.69,816.87 3930.67,837.48 3918.97,857.00              3918.97,857.00 3905.52,877.00 3905.52,877.00              3905.52,877.00 3900.35,886.00 3900.35,886.00              3900.35,886.00 3880.60,912.00 3880.60,912.00              3880.60,912.00 3863.54,931.17 3863.54,931.17              3863.54,931.17 3859.33,937.74 3859.33,937.74              3859.33,937.74 3847.84,948.16 3847.84,948.16              3844.69,950.14 3842.86,949.36 3839.83,950.28              3839.83,950.28 3833.04,953.12 3833.04,953.12              3833.04,953.12 3818.00,955.56 3818.00,955.56              3793.28,956.84 3774.56,937.61 3764.25,917.00              3752.80,894.12 3748.24,868.90 3743.54,844.00              3743.54,844.00 3740.08,828.00 3740.08,828.00              3740.08,828.00 3734.00,790.00 3734.00,790.00              3731.00,804.87 3726.06,813.41 3720.90,827.00              3710.11,855.38 3689.79,891.60 3668.41,913.08              3658.25,923.29 3646.45,933.32 3633.00,938.81              3624.82,942.14 3609.84,945.56 3601.00,945.55              3601.00,945.55 3585.00,946.65 3585.00,946.65              3585.00,946.65 3571.00,945.57 3571.00,945.57              3560.99,945.43 3546.75,938.06 3539.00,931.99              3515.62,913.66 3507.81,885.93 3502.54,858.00              3502.54,858.00 3499.08,842.00 3499.08,842.00              3499.08,842.00 3494.00,811.00 3494.00,811.00              3494.00,811.00 3479.00,846.00 3479.00,846.00              3479.00,846.00 3467.20,865.00 3467.20,865.00              3463.67,870.80 3460.90,875.60 3456.60,881.00              3440.01,901.86 3435.90,905.10 3415.28,920.66              3399.56,932.53 3371.91,943.98 3352.00,943.65              3340.62,943.46 3328.28,941.69 3318.00,936.33              3309.14,931.71 3294.03,915.46 3288.36,907.00              3285.51,902.76 3284.00,899.49 3281.75,895.00              3281.75,895.00 3271.87,875.00 3271.87,875.00              3271.87,875.00 3267.94,863.00 3267.94,863.00              3267.94,863.00 3264.06,854.00 3264.06,854.00              3264.06,854.00 3259.64,840.00 3259.64,840.00              3259.64,840.00 3255.09,829.00 3255.09,829.00              3255.09,829.00 3251.00,816.00 3251.00,816.00              3251.00,816.00 3244.31,801.00 3244.31,801.00              3244.31,801.00 3238.45,786.00 3238.45,786.00              3238.45,786.00 3226.78,759.00 3226.78,759.00              3225.55,756.38 3223.84,751.14 3222.30,749.22              3219.54,745.78 3214.07,744.77 3210.00,743.58              3202.05,741.25 3194.50,738.49 3187.00,735.00              3187.00,735.00 3175.58,754.00 3175.58,754.00              3175.58,754.00 3173.00,783.00 3173.00,783.00              3173.00,783.00 3170.00,836.00 3170.00,836.00              3170.00,836.00 3169.09,847.00 3169.09,847.00              3169.09,847.00 3167.83,868.00 3167.83,868.00              3167.83,868.00 3166.17,879.00 3166.17,879.00              3166.17,879.00 3165.42,890.00 3165.42,890.00              3165.42,890.00 3164.91,900.00 3164.91,900.00              3164.91,900.00 3163.17,919.00 3163.17,919.00              3163.17,919.00 3162.58,929.00 3162.58,929.00              3161.98,933.38 3161.65,940.40 3157.78,943.14              3152.19,947.10 3144.12,941.68 3140.00,937.91              3129.34,928.14 3120.30,912.69 3119.18,898.00              3119.18,898.00 3120.91,876.00 3120.91,876.00              3120.91,876.00 3123.17,842.00 3123.17,842.00              3123.17,842.00 3124.83,830.00 3124.83,830.00              3124.83,830.00 3127.00,793.00 3127.00,793.00              3127.00,793.00 3127.91,783.00 3127.91,783.00              3127.91,783.00 3130.00,746.00 3130.00,746.00              3130.00,746.00 3130.91,736.00 3130.91,736.00              3130.91,736.00 3132.00,713.00 3132.00,713.00              3132.00,713.00 3132.96,703.00 3132.96,703.00              3132.96,703.00 3132.96,693.00 3132.96,693.00              3132.96,693.00 3134.00,678.00 3134.00,678.00              3134.00,678.00 3135.00,640.00 3135.00,640.00              3135.00,640.00 3135.97,630.00 3135.97,630.00              3135.97,630.00 3135.97,615.00 3135.97,615.00              3136.01,605.60 3138.59,594.12 3135.97,585.00 Z            M 2287.02,261.66            C 2301.13,260.86 2312.97,279.77 2318.22,291.00              2325.06,305.63 2322.18,318.67 2322.00,334.00              2322.00,334.00 2320.17,356.00 2320.17,356.00              2320.17,356.00 2318.91,377.00 2318.91,377.00              2318.91,377.00 2316.99,401.00 2316.99,401.00              2316.99,401.00 2314.54,426.00 2314.54,426.00              2314.54,426.00 2312.28,435.00 2312.28,435.00              2311.26,439.89 2311.03,446.05 2304.98,447.34              2298.89,448.63 2291.97,442.89 2288.00,438.99              2278.76,429.87 2268.21,411.43 2269.18,398.00              2269.18,398.00 2271.54,385.00 2271.54,385.00              2271.54,385.00 2273.83,367.00 2273.83,367.00              2273.83,367.00 2276.09,333.00 2276.09,333.00              2276.09,333.00 2279.00,290.00 2279.00,290.00              2279.00,290.00 2279.91,280.00 2279.91,280.00              2280.41,272.76 2278.68,264.79 2287.02,261.66 Z            M 914.10,275.74            C 923.52,273.61 934.81,284.74 940.96,291.01              957.05,307.44 972.99,345.98 981.80,368.00              991.34,391.85 1006.63,440.95 1009.90,466.00              1009.90,466.00 1009.90,474.00 1009.90,474.00              1009.90,474.00 1011.00,486.00 1011.00,486.00              1011.00,486.00 1011.00,540.00 1011.00,540.00              1011.00,540.00 1010.09,550.00 1010.09,550.00              1008.07,579.44 1006.91,589.71 996.86,618.00              990.74,635.20 979.33,654.57 969.54,670.00              964.97,677.21 960.41,685.85 951.91,689.29              937.06,695.30 923.72,683.34 914.87,673.00              890.05,644.02 884.00,621.03 870.81,587.00              870.81,587.00 857.44,552.00 857.44,552.00              857.44,552.00 855.26,542.00 855.26,542.00              855.26,542.00 851.66,529.00 851.66,529.00              851.66,529.00 846.83,493.00 846.83,493.00              846.83,493.00 845.00,476.00 845.00,476.00              845.00,476.00 844.00,455.00 844.00,455.00              843.96,431.60 844.41,406.95 849.36,384.00              852.65,368.75 863.22,343.08 871.54,330.00              871.54,330.00 882.37,315.00 882.37,315.00              882.37,315.00 897.00,296.04 897.00,296.04              897.00,296.04 904.19,287.96 904.19,287.96              907.57,283.79 909.48,278.56 914.10,275.74 Z            M 939.00,343.00            C 939.00,343.00 937.00,343.00 937.00,343.00              922.36,362.58 905.68,380.91 896.61,404.00              884.16,435.73 884.61,464.65 885.00,498.00              885.00,498.00 886.83,520.00 886.83,520.00              886.83,520.00 889.61,544.00 889.61,544.00              892.92,562.20 904.71,591.30 911.99,609.00              911.99,609.00 921.00,632.00 921.00,632.00              926.81,629.18 931.57,621.49 934.94,616.00              943.10,602.69 950.26,589.35 956.33,575.00              967.58,548.40 969.96,527.51 970.00,499.00              970.00,499.00 971.00,482.00 971.00,482.00              971.02,466.57 970.90,450.27 968.70,435.00              964.85,408.28 949.70,368.23 939.00,343.00 Z            M 1968.00,573.00            C 1966.03,577.36 1952.10,595.66 1948.39,599.91              1948.39,599.91 1938.66,611.00 1938.66,611.00              1938.66,611.00 1932.18,619.96 1932.18,619.96              1932.18,619.96 1917.42,636.17 1917.42,636.17              1917.42,636.17 1892.08,663.43 1892.08,663.43              1892.08,663.43 1885.58,670.74 1885.58,670.74              1885.58,670.74 1866.42,688.45 1866.42,688.45              1866.42,688.45 1859.92,695.57 1859.92,695.57              1859.92,695.57 1840.08,715.43 1840.08,715.43              1840.08,715.43 1833.58,722.74 1833.58,722.74              1833.58,722.74 1825.25,730.25 1825.25,730.25              1825.25,730.25 1808.59,745.09 1808.59,745.09              1808.59,745.09 1784.41,766.37 1784.41,766.37              1780.23,769.94 1769.66,780.52 1764.96,782.08              1758.98,784.06 1752.02,778.80 1748.00,774.96              1737.86,765.28 1729.26,750.24 1728.18,736.00              1727.35,724.99 1733.40,723.13 1740.41,716.91              1740.41,716.91 1756.25,703.16 1756.25,703.16              1756.25,703.16 1776.25,685.33 1776.25,685.33              1776.25,685.33 1821.75,640.71 1821.75,640.71              1821.75,640.71 1827.42,634.26 1827.42,634.26              1827.42,634.26 1847.39,615.74 1847.39,615.74              1847.39,615.74 1878.42,582.17 1878.42,582.17              1885.26,574.63 1892.66,567.36 1898.50,559.00              1904.42,550.51 1904.55,551.65 1910.20,544.96              1910.20,544.96 1928.48,521.00 1928.48,521.00              1933.66,513.61 1936.19,505.80 1947.00,506.25              1956.58,506.64 1961.70,512.67 1968.00,519.00              1973.64,524.67 1980.17,532.37 1984.64,539.00              1984.64,539.00 1991.76,550.00 1991.76,550.00              1991.76,550.00 2005.00,566.00 2005.00,566.00              2005.00,566.00 2015.48,578.00 2015.48,578.00              2015.48,578.00 2022.01,587.00 2022.01,587.00              2022.01,587.00 2048.26,621.00 2048.26,621.00              2062.40,640.57 2079.04,670.30 2087.31,693.00              2087.31,693.00 2093.65,716.00 2093.65,716.00              2096.20,727.12 2098.98,738.53 2099.00,750.00              2099.00,750.00 2099.00,763.00 2099.00,763.00              2099.00,763.00 2097.00,787.00 2097.00,787.00              2097.00,787.00 2120.41,766.17 2120.41,766.17              2120.41,766.17 2137.92,750.57 2137.92,750.57              2137.92,750.57 2163.39,723.91 2163.39,723.91              2163.39,723.91 2173.80,711.04 2173.80,711.04              2173.80,711.04 2179.46,704.83 2179.46,704.83              2179.46,704.83 2185.05,696.00 2185.05,696.00              2185.05,696.00 2203.83,669.00 2203.83,669.00              2203.83,669.00 2210.80,659.00 2210.80,659.00              2210.80,659.00 2216.58,648.00 2216.58,648.00              2216.58,648.00 2227.32,631.00 2227.32,631.00              2227.32,631.00 2239.34,608.00 2239.34,608.00              2245.89,596.14 2256.49,570.95 2260.13,558.00              2260.13,558.00 2263.41,544.00 2263.41,544.00              2263.41,544.00 2264.68,537.00 2264.68,537.00              2264.68,537.00 2266.83,529.00 2266.83,529.00              2267.55,525.12 2267.66,520.38 2271.22,517.86              2277.65,513.31 2286.65,520.73 2291.00,525.01              2301.99,535.85 2307.90,548.84 2310.00,564.00              2310.41,566.99 2311.03,569.97 2310.82,573.00              2310.82,573.00 2310.00,593.00 2310.00,593.00              2310.00,593.00 2309.04,605.00 2309.04,605.00              2309.04,605.00 2309.04,620.00 2309.04,620.00              2309.04,620.00 2308.04,632.00 2308.04,632.00              2308.04,632.00 2308.04,647.00 2308.04,647.00              2308.04,647.00 2307.09,659.00 2307.09,659.00              2307.09,659.00 2305.83,679.00 2305.83,679.00              2305.83,679.00 2303.94,691.00 2303.94,691.00              2303.94,691.00 2303.94,700.00 2303.94,700.00              2303.94,700.00 2300.00,724.00 2300.00,724.00              2300.00,724.00 2300.00,732.00 2300.00,732.00              2300.00,732.00 2298.17,744.00 2298.17,744.00              2298.17,744.00 2296.91,765.00 2296.91,765.00              2296.91,765.00 2295.00,790.00 2295.00,790.00              2295.00,790.00 2295.00,820.00 2295.00,820.00              2295.00,820.00 2295.00,839.00 2295.00,839.00              2295.00,839.00 2296.00,855.00 2296.00,855.00              2296.01,862.48 2296.18,867.62 2298.00,875.00              2301.88,874.13 2303.86,874.52 2307.58,874.20              2307.58,874.20 2332.04,870.01 2332.04,870.01              2357.81,859.08 2387.01,832.29 2402.17,809.00              2411.14,795.22 2419.06,779.97 2425.88,765.00              2425.88,765.00 2431.99,750.00 2431.99,750.00              2431.99,750.00 2437.32,739.00 2437.32,739.00              2437.32,739.00 2445.00,720.00 2445.00,720.00              2445.00,720.00 2450.24,709.00 2450.24,709.00              2450.24,709.00 2454.21,697.00 2454.21,697.00              2454.21,697.00 2458.13,688.00 2458.13,688.00              2458.13,688.00 2462.17,675.00 2462.17,675.00              2462.17,675.00 2475.50,629.00 2475.50,629.00              2475.50,629.00 2477.46,617.00 2477.46,617.00              2477.46,617.00 2479.91,607.00 2479.91,607.00              2479.91,607.00 2486.09,558.00 2486.09,558.00              2486.09,558.00 2486.96,550.00 2486.96,550.00              2487.21,544.50 2487.96,530.81 2489.13,526.00              2489.86,523.02 2490.56,519.75 2493.22,517.86              2496.77,515.34 2501.50,516.84 2505.00,518.67              2511.74,522.20 2519.35,531.40 2523.13,538.00              2535.34,559.34 2531.64,568.38 2529.96,591.00              2529.96,591.00 2529.96,599.00 2529.96,599.00              2529.96,599.00 2528.09,611.00 2528.09,611.00              2528.09,611.00 2527.00,629.00 2527.00,629.00              2527.00,629.00 2557.42,597.26 2557.42,597.26              2557.42,597.26 2576.58,579.55 2576.58,579.55              2576.58,579.55 2585.59,569.96 2585.59,569.96              2585.59,569.96 2595.59,561.63 2595.59,561.63              2595.59,561.63 2612.96,547.33 2612.96,547.33              2623.42,539.99 2639.25,529.58 2652.00,527.52              2652.00,527.52 2668.00,527.52 2668.00,527.52              2680.73,528.10 2695.25,535.99 2705.00,543.81              2725.85,560.51 2742.27,584.71 2750.67,610.00              2758.35,633.13 2758.81,638.35 2762.13,662.00              2762.88,667.34 2763.93,671.51 2764.00,677.00              2764.00,677.00 2765.00,699.00 2765.00,699.00              2765.00,699.00 2765.00,724.00 2765.00,724.00              2765.00,724.00 2764.00,741.00 2764.00,741.00              2764.00,741.00 2764.00,884.00 2764.00,884.00              2778.29,879.23 2789.67,871.29 2802.00,863.00              2807.47,859.32 2813.42,856.27 2818.41,851.91              2818.41,851.91 2828.43,843.00 2828.43,843.00              2828.43,843.00 2841.92,833.00 2841.92,833.00              2844.82,830.69 2850.63,825.35 2854.01,824.66              2859.70,823.50 2866.19,828.40 2870.00,832.04              2880.14,841.72 2888.74,856.76 2889.82,871.00              2890.61,881.57 2884.81,884.20 2877.59,890.00              2877.59,890.00 2863.29,900.67 2863.29,900.67              2863.29,900.67 2854.08,908.99 2854.08,908.99              2848.19,913.84 2843.25,916.62 2837.00,920.67              2837.00,920.67 2827.83,927.25 2827.83,927.25              2818.97,933.10 2799.32,943.79 2789.00,945.48              2789.00,945.48 2778.00,945.48 2778.00,945.48              2765.54,945.43 2756.81,939.43 2748.00,930.96              2730.88,914.51 2721.04,884.51 2721.00,861.00              2721.00,861.00 2721.00,701.00 2721.00,701.00              2721.00,701.00 2722.00,686.00 2722.00,686.00              2722.00,686.00 2722.00,663.00 2722.00,663.00              2722.00,663.00 2721.00,648.00 2721.00,648.00              2721.00,648.00 2721.00,643.00 2721.00,643.00              2720.91,635.66 2717.84,617.27 2715.85,610.00              2714.49,605.05 2713.04,600.07 2709.52,596.18              2702.58,588.50 2692.84,586.90 2683.00,587.59              2674.39,588.20 2666.17,593.75 2659.00,597.83              2647.28,604.51 2642.85,608.87 2632.92,617.30              2632.92,617.30 2622.08,626.44 2622.08,626.44              2622.08,626.44 2615.58,633.74 2615.58,633.74              2615.58,633.74 2603.92,644.59 2603.92,644.59              2603.92,644.59 2595.61,652.26 2595.61,652.26              2595.61,652.26 2544.75,705.72 2544.75,705.72              2540.57,710.16 2527.13,724.14 2525.56,729.00              2524.89,731.05 2525.00,733.83 2525.00,736.00              2525.00,736.00 2525.00,917.00 2525.00,917.00              2524.99,920.94 2525.02,926.43 2522.86,929.87              2517.37,938.66 2505.80,929.71 2501.00,924.99              2489.25,913.40 2482.03,897.56 2482.00,881.00              2482.00,881.00 2482.00,814.00 2482.00,814.00              2482.00,806.09 2482.85,786.52 2481.00,780.00              2481.00,780.00 2476.55,792.00 2476.55,792.00              2476.55,792.00 2469.70,806.00 2469.70,806.00              2469.70,806.00 2466.00,816.00 2466.00,816.00              2458.28,833.90 2442.84,861.80 2430.96,876.99              2419.01,892.28 2394.81,912.26 2378.00,922.18              2375.26,923.80 2364.70,929.29 2362.04,930.12              2362.04,930.12 2344.58,932.93 2344.58,932.93              2328.29,934.96 2332.17,935.45 2315.42,932.93              2312.20,932.51 2311.45,932.80 2308.00,931.61              2293.98,926.76 2278.97,913.60 2271.45,901.00              2261.27,883.93 2257.05,868.63 2255.00,849.00              2255.00,849.00 2255.00,841.00 2255.00,841.00              2253.94,831.67 2253.02,831.99 2253.00,821.00              2253.00,821.00 2252.00,804.00 2252.00,804.00              2252.00,804.00 2252.00,753.00 2252.00,753.00              2252.00,753.00 2252.91,741.00 2252.91,741.00              2252.91,741.00 2254.17,720.00 2254.17,720.00              2254.69,714.49 2255.82,706.37 2255.00,701.00              2250.95,713.02 2247.28,715.43 2241.23,725.00              2241.23,725.00 2222.51,752.00 2222.51,752.00              2222.51,752.00 2218.33,758.83 2218.33,758.83              2218.33,758.83 2212.80,765.04 2212.80,765.04              2212.80,765.04 2196.61,784.09 2196.61,784.09              2179.05,804.11 2158.47,821.44 2138.59,839.09              2138.59,839.09 2119.42,856.45 2119.42,856.45              2119.42,856.45 2112.92,863.29 2112.92,863.29              2112.92,863.29 2102.09,871.62 2102.09,871.62              2102.09,871.62 2087.71,883.63 2087.71,883.63              2087.71,883.63 2057.00,901.74 2057.00,901.74              2057.00,901.74 2044.00,907.41 2044.00,907.41              2044.00,907.41 2027.00,915.83 2027.00,915.83              2027.00,915.83 2019.00,918.95 2019.00,918.95              2019.00,918.95 2009.00,923.79 2009.00,923.79              2009.00,923.79 2000.00,926.13 2000.00,926.13              2000.00,926.13 1994.00,928.81 1994.00,928.81              1994.00,928.81 1974.04,935.21 1974.04,935.21              1961.65,938.20 1948.68,938.77 1936.00,938.55              1925.47,938.38 1908.60,935.96 1899.00,931.83              1877.28,922.49 1861.24,903.12 1845.83,886.00              1835.37,874.38 1820.76,855.87 1822.19,839.00              1823.17,827.42 1831.31,826.06 1840.00,831.85              1851.84,839.74 1867.48,865.70 1884.00,874.01              1891.49,877.78 1908.44,878.27 1917.00,878.34              1949.23,878.63 1991.87,860.62 2013.58,836.83              2018.09,831.88 2028.51,818.76 2031.39,813.00              2031.39,813.00 2035.45,803.00 2035.45,803.00              2035.45,803.00 2041.13,791.00 2041.13,791.00              2041.13,791.00 2044.23,781.00 2044.23,781.00              2044.23,781.00 2048.81,770.00 2048.81,770.00              2048.81,770.00 2052.68,751.00 2052.68,751.00              2052.68,751.00 2054.79,743.00 2054.79,743.00              2054.79,743.00 2056.00,726.00 2056.00,726.00              2056.16,712.18 2055.64,702.38 2051.25,689.00              2042.41,662.03 2021.27,638.17 2004.23,616.00              2004.23,616.00 1979.18,586.00 1979.18,586.00              1974.43,580.56 1974.20,577.67 1968.00,573.00 Z            M 650.00,742.25            C 650.00,742.25 668.00,742.25 668.00,742.25              668.00,742.25 691.00,742.25 691.00,742.25              691.00,742.25 709.42,743.18 709.42,743.18              709.42,743.18 725.09,744.18 725.09,744.18              740.23,744.78 768.02,752.31 782.00,758.33              797.34,764.95 825.70,785.51 838.00,796.98              838.00,796.98 852.83,811.00 852.83,811.00              857.13,815.82 859.32,819.67 862.68,825.00              870.92,838.06 877.62,849.01 877.99,865.00              878.46,885.84 865.63,890.53 849.00,897.25              849.00,897.25 832.00,904.28 832.00,904.28              832.00,904.28 811.00,913.42 811.00,913.42              811.00,913.42 799.00,917.18 799.00,917.18              799.00,917.18 751.00,929.88 751.00,929.88              751.00,929.88 741.00,931.46 741.00,931.46              741.00,931.46 732.00,933.83 732.00,933.83              713.57,937.22 690.72,938.57 671.91,937.82              671.91,937.82 665.00,937.09 665.00,937.09              633.90,934.97 617.15,933.17 587.00,923.50              587.00,923.50 576.00,920.08 576.00,920.08              563.19,915.01 551.00,908.70 539.00,902.01              539.00,902.01 520.00,891.34 520.00,891.34              511.08,885.58 505.16,882.34 497.01,874.83              484.66,863.43 473.40,842.08 473.01,825.00              472.57,805.50 491.82,792.99 505.72,782.51              513.62,776.55 535.07,763.65 544.00,760.03              544.00,760.03 555.00,756.51 555.00,756.51              555.00,756.51 577.00,749.59 577.00,749.59              577.00,749.59 612.00,744.17 612.00,744.17              612.00,744.17 650.00,742.25 650.00,742.25 Z            M 1197.00,744.44            C 1217.03,742.38 1242.44,745.95 1262.00,750.34              1294.76,757.67 1327.42,767.88 1356.00,786.09              1356.00,786.09 1377.00,801.37 1377.00,801.37              1395.05,814.93 1411.18,830.82 1415.19,854.00              1415.85,858.60 1416.74,866.58 1415.19,871.00              1412.01,881.13 1405.17,883.79 1397.00,888.87              1397.00,888.87 1381.00,899.42 1381.00,899.42              1369.82,907.90 1359.14,915.14 1346.00,920.42              1346.00,920.42 1325.00,926.88 1325.00,926.88              1325.00,926.88 1313.00,928.82 1313.00,928.82              1313.00,928.82 1273.04,935.86 1273.04,935.86              1273.04,935.86 1264.96,935.86 1264.96,935.86              1264.96,935.86 1247.72,937.84 1247.72,937.84              1247.72,937.84 1238.17,938.82 1238.17,938.82              1238.17,938.82 1214.72,938.82 1214.72,938.82              1205.80,938.92 1196.82,937.37 1188.00,936.29              1188.00,936.29 1177.00,935.63 1177.00,935.63              1177.00,935.63 1168.00,933.29 1168.00,933.29              1168.00,933.29 1151.00,930.64 1151.00,930.64              1126.38,925.33 1104.53,917.51 1082.00,906.25              1068.54,899.52 1055.13,892.11 1044.09,881.71              1038.07,876.05 1029.21,864.19 1024.81,857.00              1017.17,844.54 1009.35,828.86 1009.01,814.00              1008.94,810.80 1008.86,806.97 1010.45,804.11              1011.92,801.48 1017.42,797.97 1020.09,796.23              1020.09,796.23 1050.00,780.92 1050.00,780.92              1050.00,780.92 1073.00,771.75 1073.00,771.75              1073.00,771.75 1093.00,764.10 1093.00,764.10              1093.00,764.10 1104.00,759.87 1104.00,759.87              1104.00,759.87 1113.00,757.96 1113.00,757.96              1113.00,757.96 1127.00,754.12 1127.00,754.12              1127.00,754.12 1155.00,749.75 1155.00,749.75              1155.00,749.75 1164.96,747.18 1164.96,747.18              1164.96,747.18 1173.04,747.18 1173.04,747.18              1173.04,747.18 1185.00,745.31 1185.00,745.31              1185.00,745.31 1197.00,744.44 1197.00,744.44 Z            M 829.00,836.00            C 822.04,827.09 801.81,815.60 791.00,811.53              783.71,808.79 777.48,807.40 770.00,805.67              770.00,805.67 753.00,802.13 753.00,802.13              727.82,798.89 701.39,800.86 676.00,800.58              646.94,800.26 616.68,802.58 589.00,811.83              589.00,811.83 564.09,822.08 564.09,822.08              564.09,822.08 556.96,826.55 556.96,826.55              548.91,831.09 550.67,829.28 542.00,835.44              536.93,839.05 530.42,842.76 527.00,848.00              540.03,855.82 557.43,863.96 572.00,868.28              572.00,868.28 582.00,870.58 582.00,870.58              582.00,870.58 594.00,874.10 594.00,874.10              594.00,874.10 618.00,877.83 618.00,877.83              618.00,877.83 647.00,879.44 647.00,879.44              647.00,879.44 658.00,880.33 658.00,880.33              658.00,880.33 662.00,880.33 662.00,880.33              662.00,880.33 685.00,878.50 685.00,878.50              685.00,878.50 695.00,877.86 695.00,877.86              695.00,877.86 706.00,875.17 706.00,875.17              706.00,875.17 723.00,872.54 723.00,872.54              723.00,872.54 750.00,865.58 750.00,865.58              750.00,865.58 760.00,863.44 760.00,863.44              783.21,856.85 806.51,844.91 829.00,836.00 Z            M 1359.00,837.00            C 1355.86,831.06 1347.00,828.15 1341.00,825.58              1324.45,818.50 1307.55,813.43 1290.00,809.64              1265.75,804.40 1270.15,803.80 1244.00,802.56              1232.49,802.02 1220.51,802.05 1209.00,803.17              1209.00,803.17 1146.00,813.92 1146.00,813.92              1146.00,813.92 1118.00,822.82 1118.00,822.82              1118.00,822.82 1092.00,833.00 1092.00,833.00              1092.00,833.00 1080.00,837.73 1080.00,837.73              1074.49,840.19 1066.04,843.69 1062.00,848.00              1091.29,864.67 1117.12,871.30 1150.00,876.59              1163.57,878.77 1185.58,881.75 1199.00,881.26              1199.00,881.26 1216.00,880.45 1216.00,880.45              1216.00,880.45 1228.00,879.28 1228.00,879.28              1228.00,879.28 1258.00,875.43 1258.00,875.43              1258.00,875.43 1267.00,874.79 1267.00,874.79              1267.00,874.79 1276.00,872.76 1276.00,872.76              1295.54,869.33 1304.12,868.45 1323.00,860.32              1336.18,854.65 1346.83,844.49 1359.00,837.00 Z"
     style="fill:#00863e;fill-opacity:1;stroke-width:0;stroke-dasharray:none" />
</svg>
